<svg width="63" height="63" viewBox="0 0 63 63" fill="none" xmlns="http://www.w3.org/2000/svg">
<path d="M53.0003 40.0469C54.8926 40.0563 56.7401 39.472 58.2829 38.3762C59.8256 37.2805 60.9858 35.7284 61.6002 33.9387C62.2146 32.1489 62.2521 30.2115 61.7076 28.3992C61.1631 26.587 60.0639 24.9912 58.5648 23.8364C57.0656 22.6817 55.2421 22.0262 53.3509 21.9622C51.4597 21.8983 49.5961 22.429 48.0224 23.4799C46.4487 24.5307 45.2442 26.0486 44.5784 27.8199C43.9127 29.5912 43.8193 31.5267 44.3113 33.3539L32.4383 37.9709C31.7346 36.4428 30.8081 35.0274 29.6893 33.7709L47.3893 16.0709C49.1908 17.511 51.4754 18.2066 53.7738 18.0147C56.0722 17.8229 58.2098 16.7582 59.7477 15.0394C61.2855 13.3205 62.1068 11.078 62.0428 8.77256C61.9787 6.46708 61.0343 4.27363 59.4035 2.64278C57.7726 1.01193 55.5792 0.067496 53.2737 0.00347987C50.9682 -0.0605363 48.7257 0.760724 47.0069 2.29856C45.2881 3.8364 44.2234 5.97406 44.0315 8.27244C43.8397 10.5708 44.5352 12.8554 45.9753 14.6569L28.2753 32.3569C27.0189 31.238 25.6035 30.3116 24.0753 29.6079L28.6923 17.7339C30.9108 18.3171 33.2684 18.0288 35.281 16.9282C37.2936 15.8276 38.8084 13.9982 39.5145 11.8157C40.2206 9.6332 40.0642 7.2632 39.0777 5.19233C38.0911 3.12146 36.3491 1.50688 34.2094 0.680126C32.0697 -0.146629 29.6947 -0.122821 27.572 0.746661C25.4493 1.61614 23.74 3.26531 22.7951 5.35555C21.8503 7.44578 21.7415 9.81844 22.4912 11.9864C23.2408 14.1543 24.7921 15.9529 26.8263 17.0129L22.2173 28.8739C19.6661 28.0317 16.9472 27.8288 14.2993 28.2829L11.9153 17.5529C14.0441 16.816 15.818 15.3057 16.8851 13.3217C17.9521 11.3377 18.2344 9.02511 17.6758 6.84274C17.1172 4.66037 15.7586 2.76775 13.8696 1.54042C11.9805 0.313099 9.69914 -0.159226 7.47808 0.217172C5.25703 0.593571 3.25864 1.79118 1.87945 3.57237C0.500272 5.35355 -0.158906 7.58812 0.0327238 9.83268C0.224353 12.0772 1.25279 14.1677 2.91395 15.6893C4.57511 17.211 6.74759 18.0525 9.0003 18.0469C9.32234 18.046 9.6441 18.0283 9.9643 17.9939L12.3453 28.7109C9.49733 29.5206 6.91035 31.0604 4.84072 33.1778C2.77108 35.2951 1.29063 37.9165 0.546054 40.7822C-0.198519 43.6479 -0.181367 46.6584 0.595811 49.5154C1.37299 52.3724 2.88321 54.9768 4.97684 57.0704C7.07047 59.164 9.67482 60.6743 12.5318 61.4514C15.3889 62.2286 18.3994 62.2458 21.265 61.5012C24.1307 60.7566 26.7521 59.2762 28.8695 57.2065C30.9868 55.1369 32.5266 52.5499 33.3363 49.7019L44.0533 52.0839C43.7966 54.3807 44.4293 56.6886 45.8212 58.5335C47.2132 60.3783 49.2588 61.6201 51.5378 62.0037C53.8169 62.3872 56.1563 61.8835 58.0754 60.5959C59.9946 59.3083 61.3478 57.3347 61.8571 55.0804C62.3664 52.8261 61.9931 50.4624 60.8138 48.4748C59.6346 46.4872 57.739 45.0267 55.5164 44.3933C53.2938 43.7598 50.9131 44.0016 48.8632 45.0689C46.8133 46.1361 45.25 47.9479 44.4943 50.1319L33.7643 47.7469C34.2185 45.099 34.0155 42.3801 33.1733 39.8289L45.0323 35.2169C45.7933 36.6724 46.9381 37.8919 48.3426 38.7433C49.7471 39.5947 51.3579 40.0455 53.0003 40.0469ZM28.0003 15.3619V15.0469C28.0003 14.2513 28.3164 13.4882 28.879 12.9256C29.4416 12.363 30.2047 12.0469 31.0003 12.0469C31.796 12.0469 32.559 12.363 33.1216 12.9256C33.6842 13.4882 34.0003 14.2513 34.0003 15.0469V15.3619C33.0645 15.8128 32.0391 16.0469 31.0003 16.0469C29.9615 16.0469 28.9361 15.8128 28.0003 15.3619ZM29.0003 8.04694C29.0003 7.65137 29.1176 7.26469 29.3374 6.93579C29.5571 6.6069 29.8695 6.35055 30.2349 6.19918C30.6004 6.0478 31.0025 6.00819 31.3905 6.08536C31.7784 6.16253 32.1348 6.35302 32.4145 6.63272C32.6942 6.91243 32.8847 7.26879 32.9619 7.65675C33.039 8.04472 32.9994 8.44685 32.8481 8.8123C32.6967 9.17775 32.4403 9.49011 32.1114 9.70987C31.7825 9.92964 31.3959 10.0469 31.0003 10.0469C30.4699 10.0469 29.9612 9.83622 29.5861 9.46115C29.211 9.08608 29.0003 8.57737 29.0003 8.04694ZM24.0003 9.04694C23.9992 7.89252 24.2835 6.75574 24.8281 5.73784C25.3727 4.71995 26.1605 3.85253 27.1215 3.21285C28.0825 2.57318 29.1868 2.1811 30.336 2.07154C31.4852 1.96197 32.6436 2.13833 33.7082 2.5849C34.7727 3.03147 35.7103 3.73439 36.4374 4.63105C37.1645 5.52771 37.6585 6.59028 37.8755 7.72412C38.0925 8.85795 38.0257 10.0279 37.6811 11.1296C37.3365 12.2314 36.7247 13.2308 35.9003 14.0389C35.6347 12.7587 34.8793 11.633 33.7953 10.9019C34.3647 10.3466 34.7555 9.63407 34.918 8.85547C35.0804 8.07687 35.0071 7.26752 34.7073 6.53082C34.4075 5.79411 33.8949 5.16351 33.2349 4.71957C32.575 4.27563 31.7977 4.03852 31.0023 4.03852C30.2069 4.03852 29.4296 4.27563 28.7697 4.71957C28.1097 5.16351 27.5971 5.79411 27.2973 6.53082C26.9975 7.26752 26.9242 8.07687 27.0866 8.85547C27.2491 9.63407 27.6399 10.3466 28.2093 10.9019C27.1238 11.6323 26.3669 12.7581 26.1003 14.0389C25.4352 13.3889 24.9067 12.6123 24.5461 11.755C24.1855 10.8977 23.9999 9.97699 24.0003 9.04694ZM2.0003 9.04694C1.99915 7.89252 2.28352 6.75574 2.82809 5.73784C3.37266 4.71995 4.16052 3.85253 5.1215 3.21285C6.08248 2.57318 7.18675 2.1811 8.33596 2.07154C9.48516 1.96197 10.6436 2.13833 11.7082 2.5849C12.7727 3.03147 13.7103 3.73439 14.4374 4.63105C15.1645 5.52771 15.6585 6.59028 15.8755 7.72412C16.0925 8.85795 16.0257 10.0279 15.6811 11.1296C15.3365 12.2314 14.7247 13.2308 13.9003 14.0389C13.6347 12.7587 12.8793 11.633 11.7953 10.9019C12.3647 10.3466 12.7555 9.63407 12.918 8.85547C13.0804 8.07687 13.0071 7.26752 12.7073 6.53082C12.4075 5.79411 11.8949 5.16351 11.2349 4.71957C10.575 4.27563 9.79767 4.03852 9.0023 4.03852C8.20694 4.03852 7.42963 4.27563 6.76968 4.71957C6.10974 5.16351 5.59712 5.79411 5.29733 6.53082C4.99754 7.26752 4.92417 8.07687 5.08662 8.85547C5.24906 9.63407 5.63994 10.3466 6.2093 10.9019C5.12721 11.6339 4.37371 12.7595 4.1093 14.0389C3.44254 13.3896 2.91245 12.6134 2.55025 11.7561C2.18805 10.8988 2.00106 9.97763 2.0003 9.04694ZM7.0003 8.04694C7.0003 7.65137 7.1176 7.26469 7.33737 6.93579C7.55713 6.6069 7.86949 6.35055 8.23494 6.19918C8.60039 6.0478 9.00252 6.00819 9.39048 6.08536C9.77845 6.16253 10.1348 6.35302 10.4145 6.63272C10.6942 6.91243 10.8847 7.26879 10.9619 7.65675C11.039 8.04472 10.9994 8.44685 10.8481 8.8123C10.6967 9.17775 10.4403 9.49011 10.1114 9.70987C9.78255 9.92964 9.39587 10.0469 9.0003 10.0469C8.46987 10.0469 7.96116 9.83622 7.58609 9.46115C7.21102 9.08608 7.0003 8.57737 7.0003 8.04694ZM6.0003 15.3619V15.0469C6.0003 14.2513 6.31637 13.4882 6.87898 12.9256C7.44159 12.363 8.20465 12.0469 9.0003 12.0469C9.79595 12.0469 10.559 12.363 11.1216 12.9256C11.6842 13.4882 12.0003 14.2513 12.0003 15.0469V15.3619C11.0645 15.8128 10.0391 16.0469 9.0003 16.0469C7.96154 16.0469 6.93613 15.8128 6.0003 15.3619ZM50.0003 59.3619V59.0469C50.0003 58.2513 50.3164 57.4882 50.879 56.9256C51.4416 56.363 52.2047 56.0469 53.0003 56.0469C53.796 56.0469 54.559 56.363 55.1216 56.9256C55.6842 57.4882 56.0003 58.2513 56.0003 59.0469V59.3619C55.0645 59.8128 54.0391 60.0469 53.0003 60.0469C51.9615 60.0469 50.9361 59.8128 50.0003 59.3619ZM51.0003 52.0469C51.0003 51.6514 51.1176 51.2647 51.3374 50.9358C51.5571 50.6069 51.8695 50.3506 52.2349 50.1992C52.6004 50.0478 53.0025 50.0082 53.3905 50.0854C53.7784 50.1625 54.1348 50.353 54.4145 50.6327C54.6942 50.9124 54.8847 51.2688 54.9619 51.6568C55.039 52.0447 54.9994 52.4468 54.8481 52.8123C54.6967 53.1778 54.4403 53.4901 54.1114 53.7099C53.7825 53.9296 53.3959 54.0469 53.0003 54.0469C52.4699 54.0469 51.9612 53.8362 51.5861 53.4612C51.211 53.0861 51.0003 52.5774 51.0003 52.0469ZM53.0003 46.0469C54.3906 46.0454 55.7498 46.4583 56.9043 47.2329C58.0589 48.0074 58.9564 49.1085 59.4822 50.3955C60.0081 51.6825 60.1385 53.097 59.8567 54.4584C59.5749 55.8198 58.8938 57.0664 57.9003 58.0389C57.6347 56.7587 56.8793 55.633 55.7953 54.9019C56.3647 54.3466 56.7555 53.6341 56.918 52.8555C57.0804 52.0769 57.0071 51.2675 56.7073 50.5308C56.4075 49.7941 55.8949 49.1635 55.2349 48.7196C54.575 48.2756 53.7977 48.0385 53.0023 48.0385C52.2069 48.0385 51.4296 48.2756 50.7697 48.7196C50.1097 49.1635 49.5971 49.7941 49.2973 50.5308C48.9975 51.2675 48.9242 52.0769 49.0866 52.8555C49.2491 53.6341 49.6399 54.3466 50.2093 54.9019C49.1238 55.6323 48.3669 56.7581 48.1003 58.0389C47.1068 57.0664 46.4257 55.8198 46.1439 54.4584C45.8621 53.097 45.9925 51.6825 46.5184 50.3955C47.0442 49.1085 47.9418 48.0074 49.0963 47.2329C50.2508 46.4583 51.61 46.0454 53.0003 46.0469ZM50.0003 15.3619V15.0469C50.0003 14.2513 50.3164 13.4882 50.879 12.9256C51.4416 12.363 52.2047 12.0469 53.0003 12.0469C53.796 12.0469 54.559 12.363 55.1216 12.9256C55.6842 13.4882 56.0003 14.2513 56.0003 15.0469V15.3619C55.0645 15.8128 54.0391 16.0469 53.0003 16.0469C51.9615 16.0469 50.9361 15.8128 50.0003 15.3619ZM51.0003 8.04694C51.0003 7.65137 51.1176 7.26469 51.3374 6.93579C51.5571 6.6069 51.8695 6.35055 52.2349 6.19918C52.6004 6.0478 53.0025 6.00819 53.3905 6.08536C53.7784 6.16253 54.1348 6.35302 54.4145 6.63272C54.6942 6.91243 54.8847 7.26879 54.9619 7.65675C55.039 8.04472 54.9994 8.44685 54.8481 8.8123C54.6967 9.17775 54.4403 9.49011 54.1114 9.70987C53.7825 9.92964 53.3959 10.0469 53.0003 10.0469C52.4699 10.0469 51.9612 9.83622 51.5861 9.46115C51.211 9.08608 51.0003 8.57737 51.0003 8.04694ZM53.0003 2.04694C54.3906 2.04543 55.7498 2.45831 56.9043 3.23286C58.0589 4.00741 58.9564 5.10847 59.4822 6.39546C60.0081 7.68246 60.1385 9.09697 59.8567 10.4584C59.5749 11.8198 58.8938 13.0664 57.9003 14.0389C57.6347 12.7587 56.8793 11.633 55.7953 10.9019C56.3647 10.3466 56.7555 9.63407 56.918 8.85547C57.0804 8.07687 57.0071 7.26752 56.7073 6.53082C56.4075 5.79411 55.8949 5.16351 55.2349 4.71957C54.575 4.27563 53.7977 4.03852 53.0023 4.03852C52.2069 4.03852 51.4296 4.27563 50.7697 4.71957C50.1097 5.16351 49.5971 5.79411 49.2973 6.53082C48.9975 7.26752 48.9242 8.07687 49.0866 8.85547C49.2491 9.63407 49.6399 10.3466 50.2093 10.9019C49.1238 11.6323 48.3669 12.7581 48.1003 14.0389C47.1068 13.0664 46.4257 11.8198 46.1439 10.4584C45.8621 9.09697 45.9925 7.68246 46.5184 6.39546C47.0442 5.10847 47.9418 4.00741 49.0963 3.23286C50.2508 2.45831 51.61 2.04543 53.0003 2.04694ZM8.0003 57.0199C8.00791 56.0497 8.31754 55.1059 8.88618 54.3197C9.45481 53.5335 10.2542 52.9439 11.1733 52.6329L12.0003 54.2829V56.0469C12.0003 56.1989 12.035 56.3489 12.1016 56.4855C12.1683 56.6222 12.2653 56.7418 12.3851 56.8353C12.5049 56.9288 12.6445 56.9938 12.7932 57.0252C12.9419 57.0567 13.0959 57.0539 13.2433 57.0169L17.0003 56.0769L20.7573 57.0169C20.9048 57.0539 21.0587 57.0567 21.2074 57.0252C21.3561 56.9938 21.4957 56.9288 21.6155 56.8353C21.7354 56.7418 21.8323 56.6222 21.899 56.4855C21.9656 56.3489 22.0003 56.1989 22.0003 56.0469V54.2829L22.8253 52.6329C23.7448 52.9436 24.5446 53.533 25.1136 54.3192C25.6826 55.1055 25.9926 56.0494 26.0003 57.0199C23.4113 58.9848 20.2505 60.0485 17.0003 60.0485C13.7501 60.0485 10.5893 58.9848 8.0003 57.0199ZM11.0003 43.0469V44.0469C11.0023 44.3822 11.0324 44.7167 11.0903 45.0469H11.0003C10.7351 45.0469 10.4807 44.9416 10.2932 44.754C10.1057 44.5665 10.0003 44.3122 10.0003 44.0469C10.0003 43.7817 10.1057 43.5274 10.2932 43.3398C10.4807 43.1523 10.7351 43.0469 11.0003 43.0469ZM12.0003 40.0469C11.7351 40.0469 11.4807 40.1523 11.2932 40.3398C11.1057 40.5274 11.0003 40.7817 11.0003 41.0469V38.0469C11.0003 36.9861 11.4217 35.9687 12.1719 35.2185C12.922 34.4684 13.9394 34.0469 15.0003 34.0469H18.0003C18.5307 34.0469 19.0394 34.2576 19.4145 34.6327C19.7896 35.0078 20.0003 35.5165 20.0003 36.0469C20.0003 36.3122 20.1057 36.5665 20.2932 36.754C20.4807 36.9416 20.7351 37.0469 21.0003 37.0469C21.5307 37.0469 22.0394 37.2576 22.4145 37.6327C22.7896 38.0078 23.0003 38.5165 23.0003 39.0469V41.0469C23.0003 40.8917 22.9642 40.7386 22.8947 40.5997C22.8253 40.4609 22.7245 40.3401 22.6003 40.2469L18.6003 37.2469C18.4735 37.1518 18.3259 37.0882 18.1697 37.0613C18.0135 37.0344 17.8532 37.045 17.7019 37.0923C17.5506 37.1396 17.4127 37.2221 17.2996 37.3332C17.1865 37.4442 17.1014 37.5805 17.0513 37.7309C16.8272 38.4057 16.3961 38.9927 15.8193 39.4085C15.2425 39.8242 14.5493 40.0476 13.8383 40.0469H12.0003ZM23.0003 44.0469V43.0469C23.2655 43.0469 23.5199 43.1523 23.7074 43.3398C23.8949 43.5274 24.0003 43.7817 24.0003 44.0469C24.0003 44.3122 23.8949 44.5665 23.7074 44.754C23.5199 44.9416 23.2655 45.0469 23.0003 45.0469H22.9103C22.9682 44.7167 22.9983 44.3822 23.0003 44.0469ZM13.0003 42.0469H13.8383C14.7405 42.0478 15.6284 41.8217 16.4203 41.3896C17.2123 40.9574 17.8828 40.3331 18.3703 39.5739L21.0003 41.5469V44.0469C21.0003 45.1078 20.5789 46.1252 19.8287 46.8754C19.0786 47.6255 18.0612 48.0469 17.0003 48.0469C15.9394 48.0469 14.922 47.6255 14.1719 46.8754C13.4217 46.1252 13.0003 45.1078 13.0003 44.0469V42.0469ZM19.5783 52.1269L20.7683 52.2759L20.1053 53.5999C20.0361 53.7388 20.0002 53.8918 20.0003 54.0469V54.7659L18.4523 54.3789L19.5783 52.1269ZM17.0003 50.0469C17.3356 50.0449 17.6701 50.0148 18.0003 49.9569V50.8109L17.0003 52.8109L16.0003 50.8109V49.9569C16.3305 50.0148 16.665 50.0449 17.0003 50.0469ZM14.4223 52.1269L15.5483 54.3789L14.0003 54.7659V54.0469C14.0004 53.8918 13.9645 53.7388 13.8953 53.5999L13.2323 52.2759L14.4223 52.1269ZM27.8003 55.4349C27.4738 54.1313 26.7614 52.9566 25.7564 52.0645C24.7514 51.1724 23.5004 50.6045 22.1673 50.4349L20.0003 50.1639V49.2349C20.9077 48.7086 21.6619 47.9543 22.1883 47.0469H23.0003C23.607 47.0491 24.2 46.8667 24.7005 46.5238C25.2009 46.1809 25.5853 45.6939 25.8023 45.1274C26.0194 44.5608 26.0589 43.9417 25.9156 43.3522C25.7724 42.7626 25.4531 42.2307 25.0003 41.8269V39.0469C24.9996 38.1424 24.6929 37.2647 24.1301 36.5566C23.5672 35.8485 22.7814 35.3517 21.9003 35.1469C21.6956 34.2659 21.1987 33.48 20.4906 32.9172C19.7825 32.3543 18.9048 32.0476 18.0003 32.0469H15.0003C13.4095 32.0485 11.8843 32.6812 10.7594 33.806C9.63454 34.9309 9.00189 36.4561 9.0003 38.0469V41.8269C8.54747 42.2307 8.22822 42.7626 8.08497 43.3522C7.94171 43.9417 7.98124 44.5608 8.1983 45.1274C8.41535 45.6939 8.79966 46.1809 9.30016 46.5238C9.80065 46.8667 10.3936 47.0491 11.0003 47.0469H11.8123C12.3387 47.9543 13.0929 48.7086 14.0003 49.2349V50.1639L11.8373 50.4349C10.5042 50.6045 9.25326 51.1724 8.24821 52.0645C7.24316 52.9566 6.53079 54.1313 6.2043 55.4349C4.16064 53.3163 2.78554 50.6431 2.25032 47.7484C1.7151 44.8538 2.04343 41.8657 3.19439 39.1563C4.34536 36.4469 6.26808 34.1361 8.72302 32.5117C11.178 30.8873 14.0566 30.0212 17.0003 30.0212C19.944 30.0212 22.8226 30.8873 25.2776 32.5117C27.7325 34.1361 29.6553 36.4469 30.8062 39.1563C31.9572 41.8657 32.2855 44.8538 31.7503 47.7484C31.2151 50.6431 29.84 53.3163 27.7963 55.4349H27.8003ZM50.0003 37.3619V37.0469C50.0003 36.2513 50.3164 35.4882 50.879 34.9256C51.4416 34.363 52.2047 34.0469 53.0003 34.0469C53.796 34.0469 54.559 34.363 55.1216 34.9256C55.6842 35.4882 56.0003 36.2513 56.0003 37.0469V37.3619C55.0645 37.8128 54.0391 38.0469 53.0003 38.0469C51.9615 38.0469 50.9361 37.8128 50.0003 37.3619ZM51.0003 30.0469C51.0003 29.6514 51.1176 29.2647 51.3374 28.9358C51.5571 28.6069 51.8695 28.3506 52.2349 28.1992C52.6004 28.0478 53.0025 28.0082 53.3905 28.0854C53.7784 28.1625 54.1348 28.353 54.4145 28.6327C54.6942 28.9124 54.8847 29.2688 54.9619 29.6568C55.039 30.0447 54.9994 30.4469 54.8481 30.8123C54.6967 31.1778 54.4403 31.4901 54.1114 31.7099C53.7825 31.9296 53.3959 32.0469 53.0003 32.0469C52.4699 32.0469 51.9612 31.8362 51.5861 31.4612C51.211 31.0861 51.0003 30.5774 51.0003 30.0469ZM53.0003 24.0469C54.3906 24.0454 55.7498 24.4583 56.9043 25.2329C58.0589 26.0074 58.9564 27.1085 59.4822 28.3955C60.0081 29.6825 60.1385 31.097 59.8567 32.4584C59.5749 33.8198 58.8938 35.0664 57.9003 36.0389C57.6347 34.7587 56.8793 33.633 55.7953 32.9019C56.3647 32.3466 56.7555 31.6341 56.918 30.8555C57.0804 30.0769 57.0071 29.2675 56.7073 28.5308C56.4075 27.7941 55.8949 27.1635 55.2349 26.7196C54.575 26.2756 53.7977 26.0385 53.0023 26.0385C52.2069 26.0385 51.4296 26.2756 50.7697 26.7196C50.1097 27.1635 49.5971 27.7941 49.2973 28.5308C48.9975 29.2675 48.9242 30.0769 49.0866 30.8555C49.2491 31.6341 49.6399 32.3466 50.2093 32.9019C49.1238 33.6323 48.3669 34.7581 48.1003 36.0389C47.1068 35.0664 46.4257 33.8198 46.1439 32.4584C45.8621 31.097 45.9925 29.6825 46.5184 28.3955C47.0442 27.1085 47.9418 26.0074 49.0963 25.2329C50.2508 24.4583 51.61 24.0454 53.0003 24.0469Z" fill="white"/>
</svg>
