<svg width="28" height="28" viewBox="0 0 28 28" fill="none" xmlns="http://www.w3.org/2000/svg">
<path fill-rule="evenodd" clip-rule="evenodd" d="M12.293 2.646C12.1407 2.32674 12.1061 1.96393 12.1954 1.62166C12.2846 1.27938 12.492 0.979658 12.7808 0.775432C13.0696 0.571206 13.4213 0.475616 13.7738 0.505545C14.1262 0.535475 14.4568 0.688999 14.707 0.939L16.856 3.089L16.886 3.059C17.1601 2.78459 17.5095 2.59772 17.8899 2.52207C18.2703 2.44642 18.6646 2.48538 19.0228 2.63403C19.381 2.78268 19.6871 3.03432 19.9022 3.35707C20.1173 3.67982 20.2317 4.05915 20.231 4.447C20.231 4.967 20.025 5.465 19.657 5.833L19.629 5.861L20.268 6.5H26C26.3976 6.50079 26.7787 6.65908 27.0598 6.94022C27.3409 7.22135 27.4992 7.60242 27.5 8V21C27.4992 21.3976 27.3409 21.7787 27.0598 22.0598C26.7787 22.3409 26.3976 22.4992 26 22.5H16.921L17.091 23.515C17.7378 23.5386 18.3503 23.812 18.7995 24.2779C19.2488 24.7438 19.4999 25.3658 19.5 26.013V27.013C19.5 27.1456 19.4473 27.2728 19.3536 27.3666C19.2598 27.4603 19.1326 27.513 19 27.513H9C8.86739 27.513 8.74021 27.4603 8.64645 27.3666C8.55268 27.2728 8.5 27.1456 8.5 27.013V26.013C8.50009 25.3658 8.75118 24.7438 9.20047 24.2779C9.64975 23.812 10.2622 23.5386 10.909 23.515L11.079 22.5H2C1.60242 22.4992 1.22135 22.3409 0.940216 22.0598C0.659083 21.7787 0.500793 21.3976 0.5 21V8C0.500793 7.60242 0.659083 7.22135 0.940216 6.94022C1.22135 6.65908 1.60242 6.50079 2 6.5H9.734L10.045 5.566C10.2659 4.90324 10.638 4.30101 11.132 3.807L12.293 2.646ZM17 24.513H11C10.6022 24.513 10.2206 24.671 9.93934 24.9523C9.65804 25.2336 9.5 25.6152 9.5 26.013V26.513H18.5V26.013C18.5001 25.816 18.4614 25.6209 18.3861 25.4388C18.3108 25.2568 18.2003 25.0914 18.061 24.952C17.9216 24.8127 17.7562 24.7022 17.5742 24.6269C17.3921 24.5516 17.197 24.5129 17 24.513ZM11.924 23.513H16.076L15.908 22.5H12.092L11.924 23.513ZM26.5 20.513H1.5V21C1.5 21.133 1.553 21.26 1.646 21.354C1.7402 21.4473 1.86739 21.4998 2 21.5H26C26.133 21.5 26.26 21.447 26.354 21.354C26.4473 21.2598 26.4998 21.1326 26.5 21V20.513ZM21.268 7.5L21.778 8.01C22.059 8.292 22.218 8.673 22.218 9.071C22.2181 9.3245 22.154 9.57389 22.0316 9.79589C21.9092 10.0179 21.7326 10.2053 21.5181 10.3405C21.3037 10.4757 21.0585 10.5544 20.8055 10.5692C20.5524 10.5839 20.2997 10.5343 20.071 10.425L18.91 11.585C18.4163 12.0793 17.8139 12.4515 17.151 12.672L13.917 13.751L13.646 14.021L16.121 16.496C16.1816 16.5561 16.2257 16.6307 16.2492 16.7128C16.2727 16.7948 16.2748 16.8815 16.2552 16.9646C16.2356 17.0476 16.1951 17.1243 16.1375 17.1872C16.0798 17.2501 16.007 17.2972 15.926 17.324L13.805 18.031C13.7168 18.0604 13.6222 18.0647 13.5318 18.0433C13.4414 18.0219 13.3587 17.9758 13.293 17.91L11.525 16.142L11.172 16.496C10.8903 16.7768 10.5087 16.9344 10.111 16.9344C9.71325 16.9344 9.33172 16.7768 9.05 16.496L6.222 13.667C5.94104 13.3856 5.78323 13.0042 5.78323 12.6065C5.78323 12.2088 5.94104 11.8274 6.222 11.546L8.967 8.801L9.4 7.5H2C1.86739 7.5002 1.7402 7.55266 1.646 7.646C1.55266 7.7402 1.5002 7.86739 1.5 8V19.513H26.5V8C26.4998 7.86739 26.4473 7.7402 26.354 7.646C26.2598 7.55266 26.1326 7.5002 26 7.5H21.268ZM12.232 15.435L13.781 16.984L14.842 16.631L12.939 14.728L12.232 15.435ZM9.404 9.778L6.929 12.253C6.83526 12.3468 6.78261 12.4739 6.78261 12.6065C6.78261 12.7391 6.83526 12.8662 6.929 12.96L9.757 15.789C9.85127 15.8818 9.97824 15.9338 10.1105 15.9338C10.2428 15.9338 10.3697 15.8818 10.464 15.789L12.939 13.314L9.404 9.778ZM12.939 3.414L11.839 4.514C11.4551 4.89836 11.1659 5.36668 10.994 5.882L9.976 8.936L13.781 12.742L16.835 11.724C17.3505 11.552 17.8189 11.2624 18.203 10.878L19.303 9.778L12.939 3.414ZM21.071 9.425C21.1647 9.33124 21.2174 9.20408 21.2174 9.0715C21.2174 8.93892 21.1647 8.81176 21.071 8.718L14 1.646C13.9057 1.55323 13.7788 1.50124 13.6465 1.50124C13.5142 1.50124 13.3873 1.55323 13.293 1.646C13.2464 1.69245 13.2095 1.74762 13.1843 1.80837C13.1591 1.86911 13.1461 1.93423 13.1461 2C13.1461 2.06577 13.1591 2.13089 13.1843 2.19163C13.2095 2.25238 13.2464 2.30755 13.293 2.354L20.364 9.425C20.4583 9.51777 20.5852 9.56976 20.7175 9.56976C20.8498 9.56976 20.9767 9.51777 21.071 9.425ZM18.922 5.154L18.95 5.126C19.0392 5.03685 19.11 4.931 19.1582 4.81449C19.2065 4.69799 19.2314 4.57311 19.2314 4.447C19.2314 4.32089 19.2065 4.19601 19.1582 4.07951C19.11 3.963 19.0392 3.85715 18.95 3.768L18.948 3.766C18.8591 3.67689 18.7535 3.6062 18.6373 3.55797C18.521 3.50973 18.3964 3.4849 18.2705 3.4849C18.1446 3.4849 18.02 3.50973 17.9037 3.55797C17.7875 3.6062 17.6819 3.67689 17.593 3.766L17.563 3.796L18.922 5.154Z" fill="white"/>
</svg>
