<svg width="12" height="12" viewBox="0 0 12 12" fill="none" xmlns="http://www.w3.org/2000/svg">
<path d="M11.4521 4.55964e-08H0.547119C0.244568 0.000183146 -0.000549208 0.245667 -0.000366108 0.548218C-0.000183008 0.850769 0.2453 1.09589 0.547852 1.0957H10.1324L0.162109 11.0664C0.0594484 11.1688 0.0018312 11.308 0.0020753 11.453C0.0025636 11.754 0.246887 11.9976 0.547852 11.9971C0.692505 11.9975 0.831299 11.9402 0.933594 11.8379L10.9043 1.86676V11.4526C10.9044 11.755 11.1497 12.0001 11.4521 12C11.7546 11.9999 12.0001 11.7546 12 11.4521V0.547424C11.9999 0.244995 11.7546 -0.000122054 11.4521 4.55964e-08Z" fill="#273F2F"/>
</svg>
