<svg width="60" height="44" viewBox="0 0 60 44" fill="none" xmlns="http://www.w3.org/2000/svg">
<path d="M51.42 43.32H8.57996C6.32643 43.3173 4.16596 42.421 2.57247 40.8275C0.978986 39.234 0.0826026 37.0735 0.0799561 34.82V9.17999C0.0826026 6.92646 0.978986 4.76599 2.57247 3.17251C4.16596 1.57902 6.32643 0.682639 8.57996 0.679993H51.42C53.6735 0.682639 55.834 1.57902 57.4274 3.17251C59.0209 4.76599 59.9173 6.92646 59.92 9.17999V34.82C59.9173 37.0735 59.0209 39.234 57.4274 40.8275C55.834 42.421 53.6735 43.3173 51.42 43.32ZM8.57996 3.67999C7.12127 3.67999 5.72232 4.25945 4.69087 5.2909C3.65942 6.32236 3.07996 7.7213 3.07996 9.17999V34.82C3.07996 36.2787 3.65942 37.6776 4.69087 38.7091C5.72232 39.7405 7.12127 40.32 8.57996 40.32H51.42C52.8786 40.32 54.2776 39.7405 55.309 38.7091C56.3405 37.6776 56.92 36.2787 56.92 34.82V9.17999C56.92 7.7213 56.3405 6.32236 55.309 5.2909C54.2776 4.25945 52.8786 3.67999 51.42 3.67999H8.57996Z" fill="white"/>
<path d="M30 28.08C28.1496 28.0829 26.3486 27.4826 24.87 26.37L1.52001 8.71C1.35503 8.59421 1.21508 8.44636 1.10852 8.27528C1.00195 8.10421 0.930957 7.9134 0.899775 7.71428C0.868592 7.51515 0.87786 7.31178 0.927025 7.11631C0.976191 6.92084 1.06425 6.73729 1.18593 6.57661C1.30761 6.41594 1.46043 6.28143 1.63526 6.18113C1.81008 6.08083 2.00333 6.01679 2.20346 5.99284C2.40358 5.96889 2.60649 5.98551 2.80004 6.04172C2.9936 6.09793 3.17385 6.19258 3.33001 6.32L26.68 24C27.6389 24.7158 28.8034 25.1025 30 25.1025C31.1966 25.1025 32.3611 24.7158 33.32 24L56.67 6.32C56.8262 6.19258 57.0064 6.09793 57.2 6.04172C57.3935 5.98551 57.5964 5.96889 57.7966 5.99284C57.9967 6.01679 58.1899 6.08083 58.3648 6.18113C58.5396 6.28143 58.6924 6.41594 58.8141 6.57661C58.9358 6.73729 59.0238 6.92084 59.073 7.11631C59.1222 7.31178 59.1314 7.51515 59.1003 7.71428C59.0691 7.9134 58.9981 8.10421 58.8915 8.27528C58.7849 8.44636 58.645 8.59421 58.48 8.71L35.13 26.37C33.6514 27.4826 31.8504 28.0829 30 28.08Z" fill="white"/>
<path d="M2.17005 39.14C1.86582 39.1405 1.56865 39.0484 1.31797 38.876C1.06728 38.7036 0.874939 38.4591 0.766455 38.1749C0.657971 37.8907 0.638477 37.5802 0.71056 37.2846C0.782643 36.989 0.942895 36.7224 1.17005 36.52L19.5701 20.11C19.8671 19.8448 20.2573 19.7084 20.6549 19.7309C21.0525 19.7535 21.4248 19.933 21.6901 20.23C21.9553 20.5271 22.0916 20.9173 22.0691 21.3149C22.0466 21.7124 21.8671 22.0848 21.5701 22.35L3.17005 38.76C2.8968 39.0086 2.53946 39.1444 2.17005 39.14ZM57.8301 39.14C57.4606 39.1444 57.1033 39.0086 56.8301 38.76L38.43 22.35C38.133 22.0848 37.9535 21.7124 37.931 21.3149C37.9085 20.9173 38.0448 20.5271 38.3101 20.23C38.5753 19.933 38.9476 19.7535 39.3452 19.7309C39.7428 19.7084 40.133 19.8448 40.43 20.11L58.82 36.52C59.0472 36.7224 59.2075 36.989 59.2795 37.2846C59.3516 37.5802 59.3321 37.8907 59.2236 38.1749C59.1152 38.4591 58.9228 38.7036 58.6721 38.876C58.4215 39.0484 58.1243 39.1405 57.82 39.14H57.8301Z" fill="white"/>
</svg>
