<svg width="53" height="55" viewBox="0 0 53 55" fill="none" xmlns="http://www.w3.org/2000/svg">
<g clip-path="url(#clip0_26_70)">
<path d="M26.1184 31.7122C29.314 31.7077 32.3973 30.491 34.7861 28.2918C37.1748 26.0926 38.7036 23.0632 39.0837 19.7758C39.4767 18.3863 41.7515 9.36949 36.023 5.06254C34.2442 3.63774 32.0953 2.79559 29.8517 2.64396C29.9659 2.4068 30.0248 2.14514 30.0235 1.88009C30.0222 1.61504 29.9608 1.35401 29.8442 1.11807C29.7276 0.882128 29.5592 0.677873 29.3524 0.52178C29.1457 0.365687 28.9064 0.262125 28.6539 0.219449C27.8205 0.0766044 26.9774 0.0032197 26.1327 0C20.596 0 17.985 3.33613 17.0688 4.89214C12.9976 6.34668 11.5611 11.6181 13.1249 19.5381C13.4533 22.8733 14.9634 25.964 17.3634 28.2126C19.7633 30.4612 22.8827 31.7081 26.1184 31.7122ZM15.6506 20.8743C17.8695 19.4024 18.7008 16.6794 19.0036 14.5792C19.9528 14.9501 20.9581 15.1434 21.9725 15.15C23.4597 15.1472 24.9166 14.7144 26.1792 13.9001C27.3944 14.6918 28.7991 15.1154 30.2345 15.1229C31.2142 15.1204 32.1847 14.9279 33.0961 14.5555C33.4777 16.6523 34.3947 19.4151 36.5935 20.8738C36.774 20.9926 36.9754 21.0734 37.1861 21.1115C36.5587 23.6593 35.1303 25.9181 33.1263 27.5314C31.1222 29.1446 28.6567 30.0205 26.1189 30.0206C23.581 30.0208 21.1154 29.1452 19.1112 27.5322C17.107 25.9192 15.6783 23.6605 15.0507 21.1127C15.264 21.0754 15.468 20.9943 15.6506 20.8743Z" fill="#273F2F"/>
<path d="M37.9532 29.1753H36.2637C36.1075 29.33 35.9481 29.4813 35.7854 29.629L35.7773 29.6362C35.6181 29.7805 35.4561 29.9214 35.2912 30.059L35.2594 30.0848C35.0999 30.2167 34.9381 30.3452 34.7737 30.4704C34.7574 30.4831 34.7411 30.4945 34.7248 30.5068C34.5615 30.6294 34.3958 30.7503 34.2269 30.8662H36.6188C36.1225 33.0585 34.071 41.042 29.1481 48.2115L28.3458 41.2022L29.1228 40.4699L29.4378 41.3177C29.487 41.4502 29.5677 41.5678 29.6723 41.6596C29.7769 41.7514 29.9021 41.8144 30.0365 41.8427C30.1708 41.8711 30.3098 41.864 30.4408 41.8221C30.5717 41.7801 30.6904 41.7047 30.7858 41.6027C32.7467 39.5054 35.3973 35.0623 33.9416 31.0564C33.4751 31.3634 32.9922 31.6427 32.4953 31.8932L32.2007 32.0323C31.432 32.3975 30.6342 32.6926 29.8161 32.9144C29.3581 33.4652 28.7908 33.9074 28.153 34.2106C27.5152 34.5139 26.8218 34.6711 26.12 34.6716H26.1167C25.4152 34.6714 24.722 34.5143 24.0845 34.2111C23.447 33.9079 22.8801 33.4657 22.4226 32.9148C21.0895 32.5547 19.8123 32.0009 18.6289 31.27C17.3414 35.2192 19.9332 39.5426 21.8594 41.6027C21.9548 41.7046 22.0734 41.7799 22.2044 41.8218C22.3353 41.8637 22.4743 41.8708 22.6085 41.8424C22.7427 41.814 22.8679 41.7511 22.9725 41.6594C23.0771 41.5677 23.1577 41.4502 23.207 41.3177L23.4159 40.7545L23.8909 41.2018L23.0878 48.2208C18.1151 41.012 16.0991 33.0475 15.6151 30.8666H18.0094C17.8411 30.7502 17.6751 30.6302 17.5115 30.5068L17.4626 30.4704C17.298 30.3455 17.1361 30.217 16.9769 30.0848L16.9455 30.0594C16.7803 29.9218 16.6182 29.7809 16.459 29.6366L16.4509 29.629C16.2885 29.4815 16.1292 29.3303 15.973 29.1753H14.2835C11.3621 29.1786 8.56135 30.3825 6.49565 32.5228C4.42995 34.663 3.26801 37.5649 3.26477 40.5917V53.2766C3.26477 53.5009 3.35076 53.716 3.50383 53.8746C3.6569 54.0331 3.8645 54.1222 4.08097 54.1222H48.1557C48.3722 54.1222 48.5798 54.0331 48.7329 53.8746C48.8859 53.716 48.9719 53.5009 48.9719 53.2766V40.5917C48.9687 37.5649 47.8068 34.663 45.7411 32.5228C43.6753 30.3825 40.8746 29.1786 37.9532 29.1753ZM25.0463 36.3634H27.5467L28.3629 38.9004L26.1183 41.0145L24.0448 39.061L25.0463 36.3634ZM26.1183 52.0588C25.5605 51.4427 25.0242 50.8061 24.5104 50.1502L25.3842 42.5172C25.6105 42.641 25.8625 42.7056 26.1183 42.7056C26.3742 42.7056 26.6262 42.641 26.8525 42.5172L27.7254 50.1464C27.2123 50.804 26.6763 51.4416 26.1183 52.0588Z" fill="#273F2F"/>
</g>
<defs>
<clipPath id="clip0_26_70">
<rect width="52.2368" height="54.1222" fill="white"/>
</clipPath>
</defs>
</svg>
