<svg width="128" height="128" viewBox="0 0 128 128" fill="none" xmlns="http://www.w3.org/2000/svg">
<path d="M75.1185 37.8622C72.0786 40.0938 67.8543 34.8751 64.0832 34.8937C60.3121 34.9123 56.1393 40.1721 53.0776 37.9705C50.0158 35.7689 53.6736 30.1387 52.4907 26.558C51.3077 22.9772 45.0158 20.634 46.1635 17.0418C47.3112 13.4496 53.7962 15.1886 56.8361 12.957C59.8761 10.7254 60.1602 4.01731 63.9314 3.99876C67.7024 3.98017 68.0525 10.6852 71.1143 12.8868C74.176 15.0884 80.6436 13.2857 81.8265 16.8665C83.0095 20.4472 76.7409 22.8522 75.5932 26.4444C74.4455 30.0366 78.1585 35.6306 75.1185 37.8622Z" fill="white"/>
<path d="M106.781 75.3511C106.781 92.4233 120.529 89.5856 121.837 100.104L123.955 117.13C124.424 120.905 122.464 123.996 118.661 123.996H82.4359C78.6324 123.996 76.6728 120.905 77.1421 117.13L79.2601 100.104C80.5681 89.5856 93.8712 92.4233 93.8712 75.3511L99.9194 78.1817L106.781 75.3511Z" fill="white"/>
<path d="M84.4299 64.003C84.4299 72.5576 91.3648 82.9521 99.9194 82.9521C108.474 82.9521 115.409 72.5576 115.409 64.003C115.409 55.4483 108.474 48.5134 99.9194 48.5134C91.3648 48.5134 84.4299 55.4483 84.4299 64.003ZM21.2178 75.3511C21.2178 92.4233 7.46991 89.5856 6.16198 100.104L4.04395 117.13C3.57462 120.905 5.53428 123.996 9.33777 123.996H45.5628C49.3663 123.996 51.326 120.905 50.8566 117.13L48.7386 100.104C47.4307 89.5856 34.1275 92.4233 34.1275 75.3511L28.0793 78.1817L21.2178 75.3511Z" fill="white"/>
<path d="M43.5688 64.003C43.5688 72.5576 36.6339 82.9521 28.0793 82.9521C19.5246 82.9521 12.5897 72.5576 12.5897 64.003C12.5897 55.4483 19.5246 48.5134 28.0793 48.5134C36.6339 48.5134 43.5688 55.4483 43.5688 64.003Z" fill="white"/>
<path d="M57.1447 69.8733C57.1447 88.8679 41.8486 85.7107 40.3934 97.4135L38.0368 116.357C37.5147 120.557 39.695 123.996 43.9268 123.996H84.2311C88.4629 123.996 90.6432 120.557 90.1211 116.357L87.7645 97.4135C86.3093 85.7107 71.5081 88.8679 71.5081 69.8733L64.7788 73.0227L57.1447 69.8733Z" fill="white"/>
<path d="M81.3127 57.2473C81.3127 66.7653 73.5969 78.3303 64.0789 78.3303C54.5609 78.3303 46.8451 66.7653 46.8451 57.2473C46.8451 47.7293 54.5609 40.0135 64.0789 40.0135C73.5969 40.0135 81.3127 47.7293 81.3127 57.2473Z" fill="white"/>
<path d="M34.5161 45.7202C32.3173 47.3343 29.262 43.5597 26.5344 43.5731C23.8068 43.5865 20.7887 47.3909 18.5742 45.7985C16.3596 44.2061 19.0053 40.1339 18.1497 37.544C17.2941 34.9541 12.7432 33.2593 13.5733 30.6611C14.4035 28.0629 19.0939 29.3207 21.2927 27.7066C23.4915 26.0925 23.697 21.2407 26.4246 21.2273C29.1521 21.2138 29.4053 26.0635 31.6198 27.6558C33.8344 29.2482 38.5123 27.9444 39.3679 30.5343C40.2235 33.1242 35.6895 34.8636 34.8594 37.4619C34.0293 40.0601 36.7148 44.1061 34.5161 45.7202ZM107.962 45.7202C105.763 47.3343 102.708 43.5597 99.98 43.5731C97.2524 43.5867 94.2343 47.3909 92.0198 45.7985C89.8053 44.2061 92.451 40.1339 91.5953 37.544C90.7397 34.9541 86.1889 33.2593 87.019 30.6611C87.8491 28.0629 92.5396 29.3207 94.7383 27.7066C96.9371 26.0925 97.1426 21.2407 99.8702 21.2273C102.598 21.2138 102.851 26.0635 105.065 27.6558C107.28 29.2482 111.958 27.9444 112.814 30.5343C113.669 33.1242 109.135 34.8636 108.305 37.4619C107.475 40.0601 110.16 44.1061 107.962 45.7202Z" fill="white"/>
</svg>
