<svg width="26" height="26" viewBox="0 0 26 26" fill="none" xmlns="http://www.w3.org/2000/svg">
<path d="M25.2299 18.1058L19.7612 15.762C19.5275 15.6624 19.2679 15.6415 19.0213 15.7022C18.7748 15.763 18.5546 15.9022 18.394 16.0989L15.9721 19.0579C12.1712 17.2658 9.11234 14.207 7.32025 10.4061L10.2792 7.98418C10.4763 7.82386 10.6159 7.60369 10.6766 7.357C10.7374 7.11031 10.7162 6.85053 10.6162 6.61699L8.2724 1.14824C8.16259 0.896485 7.96838 0.690937 7.72326 0.567037C7.47813 0.443137 7.19745 0.408652 6.92963 0.469528L1.8515 1.6414C1.59328 1.70103 1.3629 1.84642 1.19795 2.05385C1.03301 2.26127 0.943239 2.51848 0.943298 2.78349C0.943298 15.3079 11.0947 25.4397 23.5995 25.4397C23.8646 25.4399 24.122 25.3502 24.3295 25.1852C24.537 25.0203 24.6825 24.7898 24.7421 24.5315L25.914 19.4534C25.9745 19.1843 25.9393 18.9025 25.8144 18.6565C25.6896 18.4105 25.4829 18.2158 25.2299 18.1058Z" fill="white"/>
</svg>
