<svg width="113" height="142" viewBox="0 0 113 142" fill="none" xmlns="http://www.w3.org/2000/svg">
<path fill-rule="evenodd" clip-rule="evenodd" d="M17.8559 0H92.5296V14.5401C92.5296 17.7674 95.1521 20.3903 98.3797 20.3903H112.92V123.966C112.92 125.37 111.774 126.517 110.369 126.517H102.19V32.1769C102.19 30.2614 101.457 28.493 100.103 27.1385L85.7815 12.8174C84.4271 11.463 82.6586 10.7304 80.7431 10.7304H15.3051V2.55079C15.3051 1.14601 16.4511 0 17.8559 0ZM81.7993 15.5263V29.8451C81.8 30.1831 81.9346 30.5071 82.1736 30.7461C82.4126 30.9851 82.7366 31.1197 83.0746 31.1204H97.3936C97.2644 30.8419 97.0863 30.5888 96.8677 30.3732L82.5465 16.0521C82.331 15.8335 82.0779 15.6553 81.7993 15.5263ZM2.55081 15.305C1.14573 15.305 0 16.4507 0 17.8558V139.271C0 140.675 1.14573 141.822 2.55081 141.822H95.0641C96.4688 141.822 97.6149 140.675 97.6149 139.271V35.6953H83.0746C79.847 35.6953 77.2244 33.0727 77.2244 29.8451V15.305H2.55081ZM50.4351 48.6462H80.3128C80.9195 48.6462 81.5013 48.4052 81.9303 47.9762C82.3593 47.5473 82.6003 46.9654 82.6003 46.3588C82.6003 45.7521 82.3593 45.1703 81.9303 44.7413C81.5013 44.3123 80.9195 44.0713 80.3128 44.0713H50.4351C49.8284 44.0713 49.2466 44.3123 48.8176 44.7413C48.3886 45.1703 48.1476 45.7521 48.1476 46.3588C48.1476 46.9654 48.3886 47.5473 48.8176 47.9762C49.2466 48.4052 49.8284 48.6462 50.4351 48.6462ZM20.8405 101.678C19.2361 101.678 17.779 102.333 16.7242 103.388C15.6697 104.443 15.0146 105.9 15.0146 107.504V118.227C15.0146 119.831 15.6694 121.288 16.7242 122.343C17.779 123.398 19.2361 124.053 20.8405 124.053H31.5633C33.1676 124.053 34.6247 123.398 35.6795 122.343C36.7344 121.288 37.3891 119.831 37.3891 118.227V111.494L43.7074 105.76C43.9292 105.558 44.109 105.314 44.2367 105.043C44.3644 104.772 44.4373 104.478 44.4514 104.178C44.4655 103.879 44.4205 103.579 44.3189 103.297C44.2173 103.015 44.0611 102.756 43.8592 102.534C43.6574 102.312 43.4139 102.132 43.1426 102.005C42.8712 101.877 42.5774 101.804 42.2779 101.79C41.9783 101.776 41.679 101.821 41.3968 101.923C41.1147 102.024 40.8554 102.18 40.6336 102.382L37.0732 105.614C36.7833 104.776 36.3068 104.015 35.6795 103.388C34.6247 102.334 33.1676 101.679 31.5633 101.679L20.8405 101.678ZM31.5633 106.253H20.8405C20.6765 106.254 20.5142 106.287 20.3629 106.35C20.2117 106.413 20.0744 106.506 19.959 106.622C19.8424 106.738 19.7498 106.875 19.6865 107.026C19.6231 107.178 19.5903 107.34 19.5898 107.504V118.227C19.5898 118.568 19.7314 118.881 19.959 119.109C20.0744 119.225 20.2117 119.318 20.363 119.381C20.5142 119.444 20.6765 119.477 20.8405 119.478H31.5633C31.7273 119.477 31.8895 119.444 32.0408 119.381C32.1921 119.318 32.3294 119.225 32.4448 119.109C32.5613 118.993 32.6539 118.856 32.7172 118.704C32.7805 118.553 32.8134 118.391 32.8139 118.227V115.645L31.1555 117.151L31.1429 117.163C30.714 117.592 30.1322 117.833 29.5256 117.833C28.9189 117.833 28.3372 117.592 27.9082 117.163L22.7019 111.957C22.4856 111.746 22.3134 111.493 22.1953 111.215C22.0772 110.936 22.0155 110.637 22.0138 110.335C22.0121 110.032 22.0704 109.732 22.1854 109.452C22.3004 109.172 22.4698 108.918 22.6837 108.704C22.8976 108.49 23.1519 108.321 23.4317 108.206C23.7116 108.091 24.0114 108.033 24.314 108.034C24.6165 108.036 24.9157 108.098 25.1943 108.216C25.4728 108.334 25.7251 108.506 25.9367 108.722L29.6046 112.39L32.8139 109.478V107.504C32.8134 107.34 32.7805 107.177 32.7172 107.026C32.6539 106.875 32.5613 106.738 32.4448 106.622C32.3294 106.506 32.1921 106.413 32.0408 106.35C31.8895 106.286 31.7272 106.254 31.5633 106.253ZM20.8405 41.5294C19.2361 41.5294 17.779 42.1842 16.7242 43.239C15.6697 44.2938 15.0146 45.7509 15.0146 47.3552V58.0779C15.0146 59.6823 15.6694 61.1394 16.7242 62.1942C17.779 63.249 19.2361 63.9037 20.8405 63.9037H31.5633C33.1676 63.9037 34.6247 63.249 35.6795 62.1942C36.7344 61.1394 37.3891 59.6823 37.3891 58.0779V51.3445L43.7074 45.6105C43.9292 45.4087 44.109 45.1651 44.2367 44.8938C44.3644 44.6225 44.4373 44.3287 44.4514 44.0291C44.4655 43.7296 44.4205 43.4302 44.3189 43.1481C44.2173 42.866 44.0611 42.6067 43.8592 42.3849C43.6574 42.1631 43.4139 41.9833 43.1426 41.8556C42.8712 41.7279 42.5774 41.655 42.2779 41.6409C41.9783 41.6268 41.679 41.6718 41.3968 41.7734C41.1147 41.875 40.8554 42.0312 40.6336 42.2331L37.0732 45.4644C36.7833 44.6265 36.3068 43.8655 35.6795 43.239C34.6247 42.1845 33.1676 41.5294 31.5633 41.5294H20.8405ZM31.5633 46.1043H20.8405C20.6765 46.1048 20.5142 46.1376 20.3629 46.201C20.2117 46.2643 20.0744 46.3569 19.959 46.4734C19.8424 46.5889 19.7498 46.7262 19.6865 46.8775C19.6231 47.0288 19.5903 47.1912 19.5898 47.3552V58.0779C19.5898 58.4196 19.7314 58.7318 19.959 58.9597C20.0744 59.0762 20.2117 59.1687 20.363 59.2321C20.5142 59.2954 20.6765 59.3283 20.8405 59.3289H31.5633C31.7273 59.3284 31.8895 59.2955 32.0408 59.2322C32.1921 59.1688 32.3294 59.0762 32.4448 58.9597C32.5613 58.8442 32.6539 58.7069 32.7172 58.5556C32.7805 58.4043 32.8134 58.2419 32.8139 58.0779V55.4965L31.1555 57.0017L31.1429 57.0145C30.714 57.4434 30.1322 57.6844 29.5256 57.6844C28.9189 57.6844 28.3372 57.4434 27.9082 57.0145L22.7019 51.8083C22.4856 51.5968 22.3134 51.3445 22.1953 51.0659C22.0772 50.7874 22.0155 50.4882 22.0138 50.1856C22.0121 49.8831 22.0704 49.5832 22.1854 49.3034C22.3004 49.0236 22.4698 48.7693 22.6837 48.5554C22.8976 48.3414 23.1519 48.1721 23.4317 48.0571C23.7116 47.9421 24.0114 47.8837 24.314 47.8854C24.6165 47.8871 24.9157 47.9488 25.1943 48.0669C25.4728 48.1851 25.7251 48.3573 25.9367 48.5736L29.6046 52.2415L32.8139 49.329V47.3549C32.8134 47.1909 32.7805 47.0286 32.7172 46.8773C32.6539 46.726 32.5613 46.5886 32.4448 46.4731C32.3293 46.3567 32.192 46.2642 32.0408 46.2009C31.8895 46.1376 31.7272 46.1048 31.5633 46.1043ZM20.8405 71.6039C19.2361 71.6039 17.779 72.2586 16.7242 73.3134C15.6697 74.3682 15.0146 75.8253 15.0146 77.4297V88.1524C15.0146 89.7567 15.6694 91.2138 16.7242 92.2686C17.779 93.3234 19.2361 93.9782 20.8405 93.9782H31.5633C33.1676 93.9782 34.6247 93.3234 35.6795 92.2686C36.7344 91.2138 37.3891 89.7567 37.3891 88.1524V81.4193L43.7074 75.6852C43.9292 75.4834 44.109 75.2399 44.2367 74.9686C44.3644 74.6972 44.4373 74.4034 44.4514 74.1039C44.4655 73.8043 44.4205 73.505 44.3189 73.2229C44.2173 72.9407 44.0611 72.6814 43.8592 72.4596C43.6574 72.2378 43.4139 72.058 43.1426 71.9303C42.8712 71.8027 42.5774 71.7297 42.2779 71.7156C41.9783 71.7015 41.679 71.7465 41.3968 71.8482C41.1147 71.9498 40.8554 72.106 40.6336 72.3078L37.0732 75.5391C36.7833 74.7013 36.3068 73.9403 35.6795 73.3137C34.6247 72.2592 33.1676 71.6041 31.5633 71.6041L20.8405 71.6039ZM31.5633 76.1787H20.8405C20.6765 76.1792 20.5142 76.2121 20.3629 76.2754C20.2117 76.3388 20.0744 76.4314 19.959 76.5479C19.8424 76.6633 19.7498 76.8006 19.6865 76.9518C19.6232 77.1031 19.5903 77.2654 19.5898 77.4294V88.1521C19.5898 88.4938 19.7314 88.806 19.959 89.0339C20.0744 89.1504 20.2117 89.2429 20.363 89.3063C20.5142 89.3696 20.6765 89.4025 20.8405 89.403H31.5633C31.7273 89.4025 31.8895 89.3697 32.0408 89.3063C32.1921 89.243 32.3294 89.1504 32.4448 89.0339C32.5613 88.9184 32.6539 88.7811 32.7172 88.6297C32.7805 88.4784 32.8134 88.3161 32.8139 88.1521V85.5707L31.1555 87.0758L31.1429 87.0887C30.714 87.5176 30.1322 87.7586 29.5256 87.7586C28.9189 87.7586 28.3372 87.5176 27.9082 87.0887L22.7019 81.8828C22.4856 81.6712 22.3134 81.4189 22.1953 81.1404C22.0772 80.8618 22.0155 80.5626 22.0138 80.2601C22.0121 79.9576 22.0704 79.6577 22.1854 79.3778C22.3004 79.098 22.4698 78.8438 22.6837 78.6298C22.8976 78.4159 23.1519 78.2465 23.4317 78.1315C23.7116 78.0165 24.0114 77.9582 24.314 77.9599C24.6165 77.9616 24.9157 78.0233 25.1943 78.1414C25.4728 78.2595 25.7251 78.4317 25.9367 78.648L29.6046 82.3159L32.8139 79.4035V77.4294C32.8134 77.2654 32.7806 77.1031 32.7172 76.9518C32.6539 76.8006 32.5613 76.6633 32.4448 76.5479C32.3294 76.4314 32.1921 76.3388 32.0408 76.2754C31.8895 76.2121 31.7273 76.1792 31.5633 76.1787ZM50.4351 108.795H80.3128C80.9195 108.795 81.5013 108.554 81.9303 108.125C82.3593 107.696 82.6003 107.114 82.6003 106.508C82.6003 105.901 82.3593 105.319 81.9303 104.89C81.5013 104.461 80.9195 104.22 80.3128 104.22H50.4351C49.8284 104.22 49.2466 104.461 48.8176 104.89C48.3886 105.319 48.1476 105.901 48.1476 106.508C48.1476 107.114 48.3886 107.696 48.8176 108.125C49.2466 108.554 49.8284 108.795 50.4351 108.795ZM50.4351 121.51H80.3128C80.9195 121.51 81.5013 121.269 81.9303 120.84C82.3593 120.411 82.6003 119.83 82.6003 119.223C82.6003 118.616 82.3593 118.035 81.9303 117.606C81.5013 117.177 80.9195 116.936 80.3128 116.936H50.4351C49.8284 116.936 49.2466 117.177 48.8176 117.606C48.3886 118.035 48.1476 118.616 48.1476 119.223C48.1476 119.83 48.3886 120.411 48.8176 120.84C49.2466 121.269 49.8284 121.51 50.4351 121.51ZM50.4351 78.7207H80.3128C80.9195 78.7207 81.5013 78.4797 81.9303 78.0507C82.3593 77.6217 82.6003 77.0399 82.6003 76.4332C82.6003 75.8265 82.3593 75.2447 81.9303 74.8157C81.5013 74.3868 80.9195 74.1458 80.3128 74.1458H50.4351C49.8284 74.1458 49.2466 74.3868 48.8176 74.8157C48.3886 75.2447 48.1476 75.8265 48.1476 76.4332C48.1476 77.0399 48.3886 77.6217 48.8176 78.0507C49.2466 78.4797 49.8284 78.7207 50.4351 78.7207ZM50.4351 91.436H80.3128C80.9195 91.436 81.5013 91.195 81.9303 90.766C82.3593 90.337 82.6003 89.7552 82.6003 89.1485C82.6003 88.5419 82.3593 87.9601 81.9303 87.5311C81.5013 87.1021 80.9195 86.8611 80.3128 86.8611H50.4351C49.8284 86.8611 49.2466 87.1021 48.8176 87.5311C48.3886 87.9601 48.1476 88.5419 48.1476 89.1485C48.1476 89.7552 48.3886 90.337 48.8176 90.766C49.2466 91.195 49.8284 91.436 50.4351 91.436ZM50.4351 61.3615H80.3128C80.9195 61.3615 81.5013 61.1205 81.9303 60.6916C82.3593 60.2626 82.6003 59.6808 82.6003 59.0741C82.6003 58.4674 82.3593 57.8856 81.9303 57.4566C81.5013 57.0276 80.9195 56.7866 80.3128 56.7866H50.4351C49.8284 56.7866 49.2466 57.0276 48.8176 57.4566C48.3886 57.8856 48.1476 58.4674 48.1476 59.0741C48.1476 59.6808 48.3886 60.2626 48.8176 60.6916C49.2466 61.1205 49.8284 61.3615 50.4351 61.3615ZM97.1045 0.22131V14.5401C97.1052 14.8781 97.2397 15.2021 97.4787 15.4411C97.7177 15.6801 98.0417 15.8147 98.3797 15.8154H112.699C112.57 15.5369 112.391 15.2838 112.173 15.0682L97.8516 0.747136C97.6361 0.528545 97.383 0.350442 97.1045 0.22131Z" fill="#273F2F"/>
</svg>
