<svg width="31" height="29" viewBox="0 0 31 29" fill="none" xmlns="http://www.w3.org/2000/svg">
<path d="M30.9896 1.39282C30.9498 0.350772 29.7964 -0.291568 28.8643 0.132042L0.847145 13.4033C-0.190335 13.857 -0.304585 15.4249 0.669355 16.0157L7.23582 20.309V27.472C7.1974 28.7634 8.90377 29.4855 9.79797 28.5331L13.7583 24.5733L19.3008 28.197C19.5481 28.3588 19.8344 28.4418 20.1226 28.4418C20.739 28.4468 21.3228 28.0425 21.5307 27.4602L30.9154 2.00763C30.9858 1.80693 31.0183 1.59961 30.9896 1.39282ZM22.3189 6.55419L10.2073 18.6654L4.55351 14.9692L22.3189 6.55419ZM10.2377 23.8487V22.2715L11.1914 22.8951L10.2377 23.8487ZM19.3663 24.6534L12.774 20.3435L25.7336 7.38429L19.3663 24.6534Z" fill="white"/>
</svg>
