<svg width="371" height="503" viewBox="0 0 371 503" fill="none" xmlns="http://www.w3.org/2000/svg">
<path d="M313.435 446.561C312.747 446.561 312.067 446.696 311.432 446.959C310.797 447.222 310.22 447.608 309.734 448.094C309.247 448.58 308.862 449.157 308.599 449.792C308.336 450.427 308.2 451.108 308.2 451.795V471.109C308.2 482.655 298.807 492.047 287.263 492.047H80.7566C69.2115 492.047 59.8187 482.654 59.8187 471.109V321.452C59.8187 320.064 59.2673 318.732 58.2857 317.751C57.3041 316.769 55.9727 316.217 54.5845 316.217C53.1963 316.217 51.865 316.769 50.8834 317.751C49.9017 318.732 49.3503 320.064 49.3503 321.452V471.109C49.3503 488.428 63.4384 502.517 80.7576 502.517H287.262C304.58 502.517 318.669 488.429 318.669 471.109V451.794C318.669 450.406 318.117 449.075 317.136 448.093C316.154 447.112 314.823 446.561 313.435 446.561ZM318.669 314.963V183.629C318.669 182.24 318.117 180.909 317.136 179.927C316.154 178.946 314.823 178.394 313.435 178.394C312.046 178.394 310.715 178.946 309.734 179.927C308.752 180.909 308.2 182.24 308.2 183.629V314.963C308.2 316.351 308.752 317.683 309.734 318.664C310.715 319.646 312.046 320.197 313.435 320.197C314.823 320.197 316.154 319.646 317.136 318.664C318.117 317.683 318.669 316.351 318.669 314.963ZM54.5845 186.349C55.9727 186.349 57.3041 185.798 58.2857 184.816C59.2673 183.835 59.8187 182.503 59.8187 181.115V31.4073C59.8187 19.8622 69.2125 10.4694 80.7566 10.4694H109.595V30.3571C109.595 41.9022 118.989 51.295 130.533 51.295H237.46C249.006 51.295 258.398 41.9013 258.398 30.3571V10.4684H287.26C298.805 10.4684 308.197 19.8622 308.197 31.4063V61.4503C308.197 62.8385 308.749 64.1699 309.731 65.1515C310.712 66.1331 312.044 66.6846 313.432 66.6846C314.82 66.6846 316.151 66.1331 317.133 65.1515C318.114 64.1699 318.666 62.8385 318.666 61.4503V31.4073C318.666 14.0891 304.578 0 287.259 0H80.7566C63.4384 0 49.3493 14.0881 49.3493 31.4073V181.116C49.3498 182.504 49.9016 183.835 50.8834 184.817C51.8651 185.798 53.1964 186.349 54.5845 186.349ZM247.931 30.3561C247.931 36.1302 243.235 40.8246 237.461 40.8246H130.534C124.76 40.8246 120.066 36.1292 120.066 30.3561V10.5048H247.932V30.3561H247.931Z" fill="#273F2F"/>
<path d="M168.257 30.8999H199.739C201.128 30.8999 202.459 30.3484 203.44 29.3668C204.422 28.3852 204.974 27.0539 204.974 25.6657C204.974 24.2775 204.422 22.9461 203.44 21.9645C202.459 20.9829 201.128 20.4315 199.739 20.4315H168.257C166.869 20.4315 165.538 20.9829 164.556 21.9645C163.575 22.9461 163.023 24.2775 163.023 25.6657C163.023 27.0539 163.575 28.3852 164.556 29.3668C165.538 30.3484 166.869 30.8999 168.257 30.8999ZM348.413 77.1805H270.211C257.833 77.1805 247.763 87.2515 247.763 99.6289V132.596L218.727 158.789C215.174 161.998 217.451 167.911 222.234 167.911H348.414C360.792 167.911 370.862 157.84 370.862 145.463V99.6299C370.861 87.2515 360.791 77.1805 348.413 77.1805ZM360.393 145.463C360.393 152.067 355.018 157.443 348.413 157.443H235.852L256.504 138.812C257.048 138.321 257.482 137.721 257.78 137.052C258.077 136.382 258.231 135.657 258.231 134.925V99.6299C258.231 93.0255 263.606 87.6499 270.211 87.6499H348.413C355.017 87.6499 360.393 93.0245 360.393 99.6299V145.463ZM109.043 281.413V221.17C109.043 207.754 98.1289 196.84 84.713 196.84H24.4699C11.056 196.84 0.141998 207.754 0.141998 221.17V281.413C0.141998 294.827 11.056 305.741 24.4699 305.741H84.713C98.1298 305.74 109.043 294.826 109.043 281.413ZM10.6114 281.413V221.17C10.6114 213.527 16.8271 207.31 24.4699 207.31H84.713C92.3558 207.31 98.5735 213.528 98.5735 221.17V281.413C98.5735 289.056 92.3548 295.272 84.713 295.272H24.4699C16.8271 295.272 10.6114 289.055 10.6114 281.413Z" fill="#273F2F"/>
<path d="M60.2967 218.862C52.9739 218.862 47.0192 224.816 47.0192 232.139V246.056H40.8467C39.4585 246.056 38.1272 246.608 37.1456 247.589C36.164 248.571 35.6125 249.902 35.6125 251.291C35.6125 252.679 36.164 254.01 37.1456 254.992C38.1272 255.973 39.4585 256.525 40.8467 256.525H47.0192V278.482C47.0192 279.871 47.5707 281.202 48.5523 282.184C49.5339 283.165 50.8652 283.717 52.2534 283.717C53.6417 283.717 54.973 283.165 55.9546 282.184C56.9362 281.202 57.4877 279.871 57.4877 278.482V256.525H63.6582C65.0464 256.525 66.3778 255.973 67.3594 254.992C68.341 254.01 68.8924 252.679 68.8924 251.291C68.8924 249.902 68.341 248.571 67.3594 247.589C66.3778 246.608 65.0464 246.056 63.6582 246.056H57.4877V232.139C57.4885 231.394 57.7846 230.68 58.3113 230.154C58.8379 229.627 59.5519 229.331 60.2967 229.33C61.0414 229.331 61.7554 229.627 62.2821 230.154C62.8087 230.68 63.1049 231.394 63.1057 232.139V232.459C63.1057 235.349 65.4494 237.533 68.3399 237.533C71.2303 237.533 73.5741 235.031 73.5741 232.141C73.5741 224.816 67.6195 218.862 60.2967 218.862ZM341.321 330.675H283.194C270.148 330.675 259.537 341.286 259.537 354.332V412.459C259.537 425.505 270.148 436.117 283.194 436.117H341.321C354.367 436.117 364.979 425.505 364.979 412.459V354.332C364.98 341.286 354.367 330.675 341.321 330.675ZM354.511 412.459C354.511 419.731 348.594 425.647 341.323 425.647H283.196C275.924 425.647 270.008 419.73 270.008 412.459V354.332C270.008 347.06 275.925 341.144 283.196 341.144H341.323C348.595 341.144 354.511 347.061 354.511 354.332V412.459Z" fill="#273F2F"/>
<path d="M312.259 355.776C297.031 355.776 284.639 368.167 284.639 383.396C284.639 398.623 297.03 411.016 312.259 411.016C327.487 411.016 339.878 398.624 339.878 383.396C339.878 368.167 327.486 355.776 312.259 355.776ZM312.259 400.546C302.802 400.546 295.108 392.853 295.108 383.396C295.108 373.939 302.801 366.245 312.259 366.245C321.715 366.245 329.409 373.938 329.409 383.396C329.409 392.852 321.715 400.546 312.259 400.546ZM337.25 350.13C335.505 351.875 335.121 354.32 336.571 356.726C337.503 358.115 339.133 359.081 340.967 359.081C342.725 359.081 344.371 358.128 345.312 356.726C346.606 354.575 346.531 352.028 344.633 350.13C342.694 348.192 339.188 348.192 337.25 350.13ZM300.038 98.7857C296.598 96.1936 291.645 98.6326 291.645 102.959V142.131C291.645 146.449 296.593 148.903 300.028 146.312L325.969 126.779C328.735 124.699 328.757 120.528 325.98 118.424L300.038 98.7857ZM302.114 131.638V113.488L314.132 122.591L302.114 131.638Z" fill="#273F2F"/>
</svg>
