<svg width="28" height="28" viewBox="0 0 28 28" fill="none" xmlns="http://www.w3.org/2000/svg">
<path d="M14 27.3917C11.3102 27.3917 8.68075 26.594 6.44425 25.0997C4.20774 23.6053 2.46459 21.4812 1.43524 18.9962C0.405887 16.5111 0.136561 13.7766 0.66132 11.1384C1.18608 8.5003 2.48135 6.07701 4.38335 4.17501C6.28534 2.27302 8.70863 0.977746 11.3468 0.452987C13.9849 -0.0717718 16.7194 0.197554 19.2045 1.22691C21.6896 2.25626 23.8136 3.9994 25.308 6.23591C26.8024 8.47242 27.6 11.1018 27.6 13.7917C27.6 17.3986 26.1671 20.8578 23.6167 23.4083C21.0662 25.9588 17.6069 27.3917 14 27.3917ZM14 2.45833C11.7585 2.45833 9.56729 3.12302 7.70354 4.36834C5.83978 5.61367 4.38716 7.38369 3.52937 9.45459C2.67157 11.5255 2.44713 13.8042 2.88443 16.0027C3.32173 18.2011 4.40113 20.2205 5.98612 21.8055C7.57112 23.3905 9.59053 24.4699 11.789 24.9072C13.9874 25.3445 16.2662 25.1201 18.3371 24.2623C20.408 23.4045 22.178 21.9519 23.4233 20.0881C24.6686 18.2244 25.3333 16.0332 25.3333 13.7917C25.3333 10.7859 24.1393 7.9032 22.0139 5.77779C19.8885 3.65238 17.0058 2.45833 14 2.45833Z" fill="#111224"/>
<path d="M19.6667 20.025C19.3858 20.0243 19.1152 19.9193 18.9073 19.7303L13.2407 14.6303C13.1233 14.5244 13.0293 14.395 12.9649 14.2506C12.9005 14.1061 12.867 13.9498 12.8667 13.7917V8.125C12.8667 7.82442 12.9861 7.53615 13.1986 7.32361C13.4112 7.11107 13.6994 6.99167 14 6.99167C14.3006 6.99167 14.5888 7.11107 14.8014 7.32361C15.0139 7.53615 15.1333 7.82442 15.1333 8.125V13.2817L20.426 18.0417C20.5993 18.1945 20.7217 18.3966 20.7769 18.6209C20.8321 18.8453 20.8174 19.0812 20.7348 19.2969C20.6522 19.5127 20.5056 19.6981 20.3147 19.8282C20.1238 19.9583 19.8977 20.027 19.6667 20.025Z" fill="#111224"/>
</svg>
