<svg width="14" height="20" viewBox="0 0 14 20" fill="none" xmlns="http://www.w3.org/2000/svg">
<path d="M1 7.975C1.3 7.975 1.5 7.875 1.7 7.675L6 3.375V18.975C6 19.575 6.4 19.975 7 19.975C7.6 19.975 8 19.575 8 18.975V3.375L12.3 7.675C12.5 7.875 12.8 7.975 13 7.975C13.2 7.975 13.5 7.875 13.7 7.675C14.1 7.275 14.1 6.675 13.7 6.275L7.7 0.275C7.6 0.175 7.5 0.075 7.4 0.075C7.2 -0.025 6.9 -0.025 6.6 0.075C6.5 0.175 6.4 0.175 6.3 0.275L0.3 6.275C-0.1 6.675 -0.1 7.275 0.3 7.675C0.5 7.875 0.7 7.975 1 7.975Z" fill="white"/>
</svg>
