<svg width="68" height="70" viewBox="0 0 68 70" fill="none" xmlns="http://www.w3.org/2000/svg">
<g filter="url(#filter0_d_43_94)">
<path d="M62 2H6C5.46973 2.00053 4.96133 2.21141 4.58637 2.58637C4.21141 2.96133 4.00053 3.46973 4 4V60C4.00053 60.5303 4.21141 61.0387 4.58637 61.4136C4.96133 61.7886 5.46973 61.9995 6 62H62C62.5303 61.9995 63.0387 61.7886 63.4136 61.4136C63.7886 61.0387 63.9995 60.5303 64 60V4C63.9995 3.46973 63.7886 2.96133 63.4136 2.58637C63.0387 2.21141 62.5303 2.00053 62 2ZM62 4V16H6V4H62ZM6 60V18H62L62.0011 60H6Z" fill="white"/>
<path d="M13 14C13.7911 14 14.5645 13.7654 15.2223 13.3259C15.8801 12.8864 16.3928 12.2616 16.6955 11.5307C16.9983 10.7998 17.0775 9.99556 16.9231 9.21964C16.7688 8.44372 16.3878 7.73098 15.8284 7.17157C15.269 6.61216 14.5563 6.2312 13.7804 6.07686C13.0044 5.92252 12.2002 6.00173 11.4693 6.30448C10.7384 6.60723 10.1136 7.11992 9.67412 7.77772C9.2346 8.43552 9 9.20888 9 10C9.00119 11.0605 9.423 12.0772 10.1729 12.8271C10.9228 13.577 11.9395 13.9988 13 14ZM13 8C13.3956 8 13.7822 8.1173 14.1111 8.33706C14.44 8.55683 14.6964 8.86918 14.8478 9.23464C14.9991 9.60009 15.0387 10.0022 14.9616 10.3902C14.8844 10.7781 14.6939 11.1345 14.4142 11.4142C14.1345 11.6939 13.7781 11.8844 13.3902 11.9616C13.0022 12.0387 12.6001 11.9991 12.2346 11.8478C11.8692 11.6964 11.5568 11.44 11.3371 11.1111C11.1173 10.7822 11 10.3956 11 10C11.0005 9.46973 11.2114 8.96133 11.5864 8.58637C11.9613 8.21142 12.4697 8.00053 13 8ZM24 14C24.7911 14 25.5645 13.7654 26.2223 13.3259C26.8801 12.8864 27.3928 12.2616 27.6955 11.5307C27.9983 10.7998 28.0775 9.99556 27.9231 9.21964C27.7688 8.44372 27.3878 7.73098 26.8284 7.17157C26.269 6.61216 25.5563 6.2312 24.7804 6.07686C24.0044 5.92252 23.2002 6.00173 22.4693 6.30448C21.7384 6.60723 21.1136 7.11992 20.6741 7.77772C20.2346 8.43552 20 9.20888 20 10C20.0012 11.0605 20.423 12.0772 21.1729 12.8271C21.9228 13.577 22.9395 13.9988 24 14ZM24 8C24.3956 8 24.7822 8.1173 25.1111 8.33706C25.44 8.55683 25.6964 8.86918 25.8478 9.23464C25.9991 9.60009 26.0387 10.0022 25.9616 10.3902C25.8844 10.7781 25.6939 11.1345 25.4142 11.4142C25.1345 11.6939 24.7781 11.8844 24.3902 11.9616C24.0022 12.0387 23.6001 11.9991 23.2346 11.8478C22.8692 11.6964 22.5568 11.44 22.3371 11.1111C22.1173 10.7822 22 10.3956 22 10C22.0005 9.46973 22.2114 8.96133 22.5864 8.58637C22.9613 8.21142 23.4697 8.00053 24 8ZM32 14H58C58.2652 14 58.5196 13.8946 58.7071 13.7071C58.8946 13.5196 59 13.2652 59 13V7C59 6.73479 58.8946 6.48043 58.7071 6.2929C58.5196 6.10536 58.2652 6 58 6H32C31.7348 6 31.4804 6.10536 31.2929 6.2929C31.1054 6.48043 31 6.73479 31 7V13C31 13.2652 31.1054 13.5196 31.2929 13.7071C31.4804 13.8946 31.7348 14 32 14ZM33 8H57V12H33V8ZM39 22H11C10.7348 22 10.4804 22.1054 10.2929 22.2929C10.1054 22.4804 10 22.7348 10 23V55C10 55.2652 10.1054 55.5196 10.2929 55.7071C10.4804 55.8946 10.7348 56 11 56H39C39.2652 56 39.5196 55.8946 39.7071 55.7071C39.8946 55.5196 40 55.2652 40 55V23C40 22.7348 39.8946 22.4804 39.7071 22.2929C39.5196 22.1054 39.2652 22 39 22ZM38 24V48H12V24H38ZM12 54V50H38V54H12Z" fill="white"/>
<path d="M20 44.5825C20.3033 44.7601 20.6485 44.8538 21 44.8538C21.3515 44.8538 21.6966 44.7601 22 44.5825L33 38.2314C33.3039 38.0558 33.5564 37.8034 33.7318 37.4994C33.9073 37.1954 33.9997 36.8505 33.9997 36.4995C33.9997 36.1485 33.9073 35.8036 33.7318 35.4996C33.5564 35.1956 33.3039 34.9432 33 34.7676L22 28.417C21.6959 28.2415 21.3511 28.1491 21 28.1491C20.649 28.149 20.3041 28.2414 20 28.417C19.696 28.5925 19.4435 28.8449 19.268 29.149C19.0924 29.453 19 29.7978 19 30.1489V42.8511C18.9979 43.2025 19.0894 43.5481 19.2651 43.8524C19.4409 44.1567 19.6945 44.4087 20 44.5825ZM21 30.1494L32 36.5L21 42.8511V30.1494ZM49 28H57C57.2652 28 57.5195 27.8946 57.7071 27.7071C57.8946 27.5196 58 27.2652 58 27C58 26.7348 57.8946 26.4804 57.7071 26.2929C57.5195 26.1054 57.2652 26 57 26H49C48.7348 26 48.4804 26.1054 48.2929 26.2929C48.1053 26.4804 48 26.7348 48 27C48 27.2652 48.1053 27.5196 48.2929 27.7071C48.4804 27.8946 48.7348 28 49 28ZM57 34H45C44.7348 34 44.4804 34.1054 44.2929 34.2929C44.1053 34.4804 44 34.7348 44 35C44 35.2652 44.1053 35.5196 44.2929 35.7071C44.4804 35.8946 44.7348 36 45 36H57C57.2652 36 57.5195 35.8946 57.7071 35.7071C57.8946 35.5196 58 35.2652 58 35C58 34.7348 57.8946 34.4804 57.7071 34.2929C57.5195 34.1054 57.2652 34 57 34ZM57 42H45C44.7348 42 44.4804 42.1054 44.2929 42.2929C44.1053 42.4804 44 42.7348 44 43C44 43.2652 44.1053 43.5196 44.2929 43.7071C44.4804 43.8946 44.7348 44 45 44H57C57.2652 44 57.5195 43.8946 57.7071 43.7071C57.8946 43.5196 58 43.2652 58 43C58 42.7348 57.8946 42.4804 57.7071 42.2929C57.5195 42.1054 57.2652 42 57 42ZM57 50H45C44.7348 50 44.4804 50.1054 44.2929 50.2929C44.1053 50.4804 44 50.7348 44 51C44 51.2652 44.1053 51.5196 44.2929 51.7071C44.4804 51.8946 44.7348 52 45 52H57C57.2652 52 57.5195 51.8946 57.7071 51.7071C57.8946 51.5196 58 51.2652 58 51C58 50.7348 57.8946 50.4804 57.7071 50.2929C57.5195 50.1054 57.2652 50 57 50Z" fill="white"/>
</g>
<defs>
<filter id="filter0_d_43_94" x="-2" y="0" width="72" height="72" filterUnits="userSpaceOnUse" color-interpolation-filters="sRGB">
<feFlood flood-opacity="0" result="BackgroundImageFix"/>
<feColorMatrix in="SourceAlpha" type="matrix" values="0 0 0 0 0 0 0 0 0 0 0 0 0 0 0 0 0 0 127 0" result="hardAlpha"/>
<feOffset dy="4"/>
<feGaussianBlur stdDeviation="2"/>
<feComposite in2="hardAlpha" operator="out"/>
<feColorMatrix type="matrix" values="0 0 0 0 0 0 0 0 0 0 0 0 0 0 0 0 0 0 0.25 0"/>
<feBlend mode="normal" in2="BackgroundImageFix" result="effect1_dropShadow_43_94"/>
<feBlend mode="normal" in="SourceGraphic" in2="effect1_dropShadow_43_94" result="shape"/>
</filter>
</defs>
</svg>
